<svg id="Layer_1" data-name="Layer 1" xmlns="http://www.w3.org/2000/svg" viewBox="0 0 1244.96 920.76"><defs><style>.cls-1{fill:#ada395;}.cls-2{fill:#182f2b;}.cls-3{fill:#fdfdfd;}</style></defs><path class="cls-1" d="M1559,610.77c.49,3,1,6,1.46,9,.33,5.38-4,7-7.33,9.85-19.53,16.67-45,19.2-67.67,28.07-97.1,38-194.77,74.61-292.35,111.4Q992.49,844.67,791.79,920c-7.64,2.89-13.19,2.34-19.82-2.17-34.6-23.52-69.52-46.57-104.22-69.93-90.33-60.83-180.3-122.19-271.18-182.17-15.44-10.18-26-19.43-21.92-39,1.2-5.72-2-14,3.34-16.81,6.15-3.28,10.91,4.18,16,7.59,1.33.9,2.75,1.64,4.09,2.51q60.76,39.43,121.51,78.89,38.24,24.84,76.43,49.76c3,2,6.83,5.33,9.47,1.8s-2.15-6.21-4.46-8.62c-7.88-8.25-16.11-16-23.59-24.81-18.55-21.83-39.85-41.3-59.09-62.57-25.48-28.16-56.89-50.5-79.46-81.42-3.09-4.24-6.83-3-10.64-3.17-1.29-11-10.84-17.13-15.35-26.23-1-2-3.8-3.1-3.4-6,6.38-1.5,8.94,6.3,16.22,6.3-4.26-18.51-5.57-36.91-5.66-55.4,0-10.08.94-18.64-8-28.15-8-8.5-7.15-3-9.85,1.43-2.14-8,1.62-10.79,9.14-13.16,27-8.5,55.08-10.75,82.54-16.5,3.87-.81,8-.68,11-3.82a12.61,12.61,0,0,1,2.23.71c17.76,9.33,17,10.83,4.52,27.12-4,5.28-11.77,6.32-13.22,13.48,3.36,1.51,9.15-1.22,10,2.21,3.81,14.73,18.49,14.53,27.87,21.43,6.73,5,14.57.9,20.71-1.16,4.95-1.67-1-8-1.06-12.32,0-2.34-.42-5.48.86-6.9,5-5.55,6.4-11.56,2-20.31L732,520.09l-.75,3.36-117.13,16c18.34,1.35,36.3-.72,54.43-2.46,21.2-2,42.2-8.22,63.87-6.06,2.87.29,6.25-1.47,9-3,7-4,14.92-.73,16.67,3.71,2.41,6.16,6.93,6.17,10.75,7.94,14,6.49,22.94,17.17,29.34,30.91,3.61,7.75,1.18,9.7-6.23,10.6-18.71,2.3-37.23,6-58.89,6.68,21.27,3.08,40.33-2.49,59.74,5-3.6,1.19-6.1,2.39-8.74,2.85-53.13,9.28-107.14,11.46-160.39,19.79-5.93.93-12.61.43-16.43,7.6,2,.4,3.16,1,4.24.81q89.29-11.5,178.83-20.92c15.8-1.65,29.34,1.64,43.27,8.76,7.58,3.88,12.11,13.85,22.89,12-50.76,16-104.22,20.41-154,39.11,182.51-36.58,363.1-82.15,547.3-117.74-48.17-.15-94.18,11.61-142.76,11.55l8.67-11.08c-8.08,0-14.5.36-20.86-.09-8.44-.6-17.1,4.27-25,1-14.47-6.07-29-10.72-44.84-10.76-3.56,0-6.37-1.78-6.76-5.53-.35-3.43-1.66-7.46,1.91-10a70.45,70.45,0,0,1,9.43-5.16c31.46-15.76,65.75-24.62,97.33-40.14,10-4.89,20.46-10.37,31.19-11.7,19.69-2.46,36.19-12.43,54.06-19.1,10.73-4,20.56-11.79,31.51-13.62,27.74-4.66,51.36-20,77.92-27.77,21.63-6.37,42-17.8,63.27-26.1,5.22-2,9.86-5.26,15.5-1.68l.71.46-.61-.55a1.6,1.6,0,0,1,.4-2.15c26.44,19,51.3,39.91,75.56,61.56,7.87,7,1,10.34-4.58,10-10.57-.59-11.35,5.07-11.48,13-.12,6.76-1.57,13.48-2,20.24-.55,9.74-.06,18.87,11.42,23.16,4.3,1.6,8.65,5.14,8,10.8-.79,7-7,5.34-11.34,6-11.85,1.71-23.74,3.15-35.62,4.59-4,.49-9.44.74-9.61,5.21-.16,4.18-2.65,10.25,3.66,13.08-10.49,7.51-5.53,17-3.19,26.06.73,2.8,4.41,5.18-1,7.35-10,4-19.46,10-29.78,12.51-78,19.24-156.09,37.83-234.15,56.68-13.82,3.34-27.56,7-41.33,10.45,54.41-9.71,108-22.8,162.37-32.2a14.19,14.19,0,0,1-6.17,3.36c-18.27,5.14-37,9.16-54.71,15.67-11.16,4.1-21.49,7.95-33.85,8.64-24.73,1.36-48.41,9.71-72.5,15.31-13.91,3.24-27.91,5.65-42.5,4.38l29.56-8.05a28.43,28.43,0,0,0-13.37-.39Q1011,676.71,938.05,693.8c-6,1.42-11.85,3.93-17.77,5.93,4,11.32-6.25,7.74-10.24,8.82-18.3,4.93-37,8.72-55.24,13.5-29.43,7.7-58.83,15.48-88.43,22.53-27.07,6.45-54,13.62-81.19,19.44-12.26,2.62-24.07,5.47-35.36,12.18,28,18.78,55,36.93,82.08,55.12,3.89,2.61,7.35,5.58,11.65,7.89,9.73,5.22,24.86,2.49,28.26,18,.44,2,4.09,4.32,6.58,4.8,6.93,1.33,16.67-4.37,18.61,8.22a47.11,47.11,0,0,0,5.84-1.15c4.56-1.5,9.07-3.14,13.57-4.84,63.05-23.81,126.05-47.78,189.17-71.45,91-34.15,182.35-67.6,273.18-102.28,72.13-27.55,144.91-53.29,217.55-79.42,6.13-2.21,14.38-8.67,18.68-4.25,4.88,5,1.94,14.41-1.78,21.17-1.82,3.31.06,5.6,1.18,7.56,1.67,3,4.33.47,6.12-.66C1533.32,626.88,1547.09,620.33,1559,610.77ZM641.69,707.14c.71-15.7-7.6-24.78-17.76-34-21.49-19.48-43.17-38.89-62.72-60.45-2.26-2.49-5.07-6.56-8.84-3.09-3.13,2.89-1.23,6.56,1.24,9.58,1.64,2,4.56,3.42,3.09,7-3.72,9.15-.23,18.44,4.38,24.93,21,29.6,49,53,73.67,79.42,2.2,2.36,4.32,3.67,7,1,2-2,2.53-3.85-.29-5.79s-1.55-5.11-1.77-7.78C639.32,713,638.86,707.92,641.69,707.14Zm743.84-175.37c-53.91-2.73-102.65,13.46-153.84,25.22,7.21,5.32,14.69-3.35,17.44,1.65,8.25,15,18.71,5.83,29,4.83,18-1.74,34.53-11.68,54-7.28,5,1.14,18.34,4.23,21.29-8.94.59-2.67,5.14-1.19,7.63-2.12C1369.06,542.12,1378.86,542.19,1385.53,531.77Zm-805.4-34.35c-15,5.76-8.62,14.48-4.31,23.1,12,23.92,23.78,47.92,35.66,71.88,1,2.06,1.47,4.63,5.93,5.15.48-14.24,1.9-28.31-1.59-42.3-.65-2.61-2.25-6.81-3.9-7.06-11.43-1.74-11.28-12.47-15.49-19.46C590.29,518.55,585.37,507.63,580.13,497.42Zm790.3,50.92c-5.34.2-9.08-1.15-11.72,2.81C1362.94,553.89,1366,551.7,1370.43,548.34ZM688.2,664c2.61,1.55,5,2.43,7,0Zm570.1-122.42c-.56.41-1.44.73-1.53,1.2a2,2,0,0,0,.8,1.76,1.46,1.46,0,0,0,2.08-1.6C1259.61,542.49,1258.79,542.07,1258.3,541.61Z" transform="translate(-337.02 -89.65)"/><path class="cls-2" d="M1400.72,372.57a1.6,1.6,0,0,0-.4,2.15l-.1.09c-5.64-3.58-10.28-.35-15.5,1.68-21.3,8.3-41.64,19.73-63.27,26.1-26.56,7.81-50.18,23.11-77.92,27.77-11,1.83-20.78,9.6-31.51,13.62-17.87,6.67-34.37,16.64-54.06,19.1-10.73,1.33-21.22,6.81-31.19,11.7-31.58,15.52-65.87,24.38-97.33,40.14a70.45,70.45,0,0,0-9.43,5.16c-3.57,2.52-2.26,6.55-1.91,10,.39,3.75,3.2,5.52,6.76,5.53,15.82,0,30.37,4.69,44.84,10.76,7.88,3.3,16.54-1.57,25-1,6.36.45,12.78.09,20.86.09l-8.67,11.08c48.58.06,94.59-11.7,142.76-11.55-184.2,35.59-364.79,81.16-547.3,117.74,49.83-18.7,103.29-23.06,154-39.11-10.78,1.86-15.31-8.11-22.89-12-13.93-7.12-27.47-10.41-43.27-8.76q-89.55,9.36-178.83,20.92c-1.08.14-2.25-.41-4.24-.81,3.82-7.17,10.5-6.67,16.43-7.6,53.25-8.33,107.26-10.51,160.39-19.79,2.64-.46,5.14-1.66,8.74-2.85-19.41-7.52-38.47-2-59.74-5,21.66-.66,40.18-4.38,58.89-6.68,7.41-.9,9.84-2.85,6.23-10.6-6.4-13.74-15.37-24.42-29.34-30.91-3.82-1.77-8.34-1.78-10.75-7.94-1.75-4.44-9.7-7.74-16.67-3.71-2.71,1.57-6.09,3.33-9,3-21.67-2.16-42.67,4-63.87,6.06-18.13,1.74-36.09,3.81-54.43,2.46l117.13-16,.75-3.36-173.19-67.5c4.41,8.75,3,14.76-2,20.31-1.28,1.42-.9,4.56-.86,6.9.06,4.33,6,10.65,1.06,12.32-6.14,2.06-14,6.11-20.71,1.16-9.38-6.9-24.06-6.7-27.87-21.43-.89-3.43-6.68-.7-10-2.21,1.45-7.16,9.18-8.2,13.22-13.48,12.48-16.29,13.24-17.79-4.52-27.12a12.61,12.61,0,0,0-2.23-.71c-16.18-2.56-28.72-13-41.95-21.06-9.17-5.62-12.39-18.13-14-28.4-4.12-26.35-10.2-52.56-7-79.78,2.33-19.93,2.4-22,21.54-28q112.18-35.48,224.53-70.47C805.56,164.2,923.34,128.3,1041,91.93c12.38-3.83,24.71-2.31,36,.78,124.79,34,250.29,65.14,376.29,94.31,2,.45,3.94.78,5.84,1.39,2.94.93,6.91,1.09,7,5.27.05,3.79-3.14,5.24-6.33,6.27-3.78,1.22-7.92,1.55-11,4.48-39.25,11.19-76.76,27.4-114.64,42.13q-96.77,37.63-193.64,74.95c-89.71,34.42-180.1,67.08-268.83,104-3.63,1.51-6.18.33-9.07-.66-49.61-17-99.33-33.65-148.78-51.09-75.43-26.6-150.61-53.88-226-80.54-22.21-7.85-29,.21-29,20.83,0,19.11,1.44,37.91,5.62,56.47,2.07,9.18-3.18,4.66-7.43,3,1.49,3.26,2.95,5.28,3.33,7.49,3.52,20.19,3.47,20.14,23.5,21.26a32.83,32.83,0,0,1,8.14,2c23.89,7.85,46.44,19.18,69.94,27.83,37.52,13.83,74.41,29.28,112,42.84,29.46,10.61,58,23.84,87.45,34.83,32.19,12,63.29,26.87,95.94,37.71,11.94,4,23.77,8.15,36.86,2.09,17.05-7.89,34.77-14.31,52.15-21.49q76.1-31.42,152.13-63c26.21-10.91,52.45-21.8,78.39-33.34,58.93-26.22,119.14-49.4,178.08-75.65,27.88-12.41,56.8-23,85-35.11,3.2-1.37,8.62-.85,8.55-6.72,7.46,1.05,18.44-1.77,20,7.77,1.45,8.73-9.92,8.4-15.79,11.18q-26.34,12.5-53.49,23.26c-9.4,3.72-10.3,7.13-2,12.86A37.78,37.78,0,0,1,1400.72,372.57Z" transform="translate(-337.02 -89.65)"/><path class="cls-2" d="M428.22,569.84c3.81.12,7.55-1.07,10.64,3.17,22.57,30.92,54,53.26,79.46,81.42,19.24,21.27,40.54,40.74,59.09,62.57,7.48,8.81,15.71,16.56,23.59,24.81,2.31,2.41,7.16,5,4.46,8.62s-6.47.15-9.47-1.8q-38.21-24.9-76.43-49.76Q458.83,659.41,398.05,620c-1.34-.87-2.76-1.61-4.09-2.51-5.06-3.41-9.82-10.87-16-7.59-5.3,2.81-2.14,11.09-3.34,16.81-4.09,19.6,6.48,28.85,21.92,39,90.88,60,180.85,121.34,271.18,182.17,34.7,23.36,69.62,46.41,104.22,69.93,6.63,4.51,12.18,5.06,19.82,2.17q200.54-75.74,401.28-150.94c97.58-36.79,195.25-73.38,292.35-111.4,22.66-8.87,48.14-11.4,67.67-28.07,3.34-2.85,7.66-4.47,7.33-9.85,8.16,2.49,20.1,1.9,21.48,11.87,1.11,8-10.21,9.72-16.37,13.45q-48.22,29.28-96.91,57.81-247.42,145.53-495,290.88c-3.37,2-8.13,2.37-10.58,5-17.2,18.68-34.21,11.39-53.17,2.23-40.57-19.62-82-37.5-123-56.09-.46-5.61-4-7.91-9.11-8.68-7.75-1.17-16.52-3.51-19.1-10.65-3.95-11-11.64-9.81-19.82-9.76-2.85-6.14-7.6-9.43-14.43-9.62-1.53-6.28-7.13-7.52-12-9.69-2.76-6.85-14-4.93-14.56-14,1.08-.29,3.07-.52,3.1-.88.15-2.32-1.73-1.76-3.13-1.8-.85-2.17-1.71-2-2.56,0-8.19,2.4-11.41-8.3-19.09-7.23a104.65,104.65,0,0,0-28.92-19.21c-3-3.79-6.73-6.22-12.88-8.47,3.61,6.53,8,7.79,12.7,8.68,8.23,8.52,18.16,14.47,28.91,19.2,11.1,9.46,21.45,20.06,36.22,24,2.23,5.42,7.49,7,12,9.59L738.64,916c1.32,2.62,5.38,3.57,4.59,7.49-4.85,1.51-8.49-1.65-12.36-3.44C676,894.68,621.26,869.09,566.37,843.8q-97.65-45-195.54-89.45c-7.73-3.5-13.86-11.08-23.77-9.75-2.61.35-3.78-2.66-4.36-5-3.06-12.45-5.89-24.91-5.67-37.91.08-4.86,2.32-7.25,6.25-8.95,9.92-4.28,19.77-8.76,29.78-12.82,6.68-2.71,10.1-5.91,2.53-11.28C348,649,360.79,621.1,360.81,595.94c0-7.35,7.19-7.81,12.26-9.4C391.39,580.78,409.83,575.38,428.22,569.84ZM873.7,947c-.6,9.08,3.74,12.77,10.5,15.55C899,968.64,913.75,975,928,982.23c5.76,2.94,9.72,3.22,15.27-.05,30.4-17.89,61-35.4,91.57-53q72.23-41.59,144.45-83.19c14.9-8.6,29.75-17.3,44.41-26.3,2.33-1.43,6.24-2.49,2.93-8.14-3.46-5.91-5.93-2.24-8.26-.92-30.26,17.18-60.3,34.73-90.64,51.77Q1041,911.1,955.52,962c-16.66,9.89-30.72,9.62-46.89-.67C898.45,954.87,886,951.91,873.7,947ZM350,709.24c-2,6.93,3,13,2.13,19.87-.41,3.18,3.37,6.1,6.76,4.77,10.35-4.08,18.83,1.06,27.49,4.9,13.89,6.14,27.57,12.76,41.33,19.19,43.82,20.49,88.49,39.14,131.88,60.61,12.82,6.35,26.93,10.06,40.21,15.55,4.59,1.9,7.15-.31,8.94-3.1,1.67-2.62-2.08-4.42-3.56-5-13.34-5.41-23.87-15.29-37.38-21-61.54-26.18-122.48-53.79-183.22-81.81C373.21,717.92,360.11,717.52,350,709.24Zm59.32-32c-2.78-.79-3.87-1.47-4.67-1.23s-1.33,1.42-2,2.19c.89.45,1.81,1.33,2.64,1.24C406.29,679.33,407.22,678.42,409.28,677.23Zm8.35,9.43-2-.9c-.27.67-.91,1.48-.73,2s1.22.63,1.88.93C417.08,688,417.36,687.33,417.63,686.66Z" transform="translate(-337.02 -89.65)"/><path class="cls-1" d="M1448.43,314.33c.07,5.87-5.35,5.35-8.55,6.72-28.17,12.09-57.09,22.7-85,35.11-58.94,26.25-119.15,49.43-178.08,75.65-25.94,11.54-52.18,22.43-78.39,33.34q-76,31.67-152.13,63c-17.38,7.18-35.1,13.6-52.15,21.49-13.09,6.06-24.92,1.87-36.86-2.09-32.65-10.84-63.75-25.7-95.94-37.71-29.42-11-58-24.22-87.45-34.83-37.64-13.56-74.53-29-112-42.84-23.5-8.65-46.05-20-69.94-27.83a32.83,32.83,0,0,0-8.14-2c-20-1.12-20-1.07-23.5-21.26-.38-2.21-1.84-4.23-3.33-7.49,4.25,1.66,9.5,6.18,7.43-3-4.18-18.56-5.66-37.36-5.62-56.47.05-20.62,6.83-28.68,29-20.83,75.41,26.66,150.59,53.94,226,80.54,49.45,17.44,99.17,34.12,148.78,51.09,2.89,1,5.44,2.17,9.07.66,88.73-37,179.12-69.61,268.83-104q96.93-37.2,193.64-74.95c37.88-14.73,75.39-30.94,114.64-42.13C1443.24,241,1446.6,277.69,1448.43,314.33Zm-576,228.19c-5.66-15.63-9.29-30.51-9.92-45.9-.7-17.39-4.23-34.9,2.27-52,2-5.15-.26-8.31-5.62-9.72-17.23-4.54-34.3-9.73-51.63-13.78-25.86-6.06-49.44-18.39-74.64-26.48-35.38-11.37-72.25-18.9-105.9-35.91-6.64-3.35-15.68-9.39-24.64-1.87-1.88,1.57-4.15-1.56-6.18-2.7-25.07-14.08-55-14.73-80.05-28.89a2.63,2.63,0,0,0-2.29-.13c-8.05,6.32-16.59,3.65-25.18,1.63a7.48,7.48,0,0,0-6.68,1.67c-9.88,8.11-14.84,25.76-8.58,37.89,2.55,4.95-1.93,12.79,4.95,14.55,13.72,3.52,24.25,11.87,36,18.95,15,9,32,15.35,48.06,22.88,28.5,13.34,58.5,23,88,33.9,43,15.94,84.68,35.35,127.92,50.89C809.35,518.63,839.42,532.37,872.45,542.52Z" transform="translate(-337.02 -89.65)"/><path class="cls-2" d="M1559,610.77c-11.87,9.56-25.64,16.11-38.45,24.19-1.79,1.13-4.45,3.61-6.12.66-1.12-2-3-4.25-1.18-7.56,3.72-6.76,6.66-16.14,1.78-21.17-4.3-4.42-12.55,2-18.68,4.25-72.64,26.13-145.42,51.87-217.55,79.42-90.83,34.68-182.14,68.13-273.18,102.28-63.12,23.67-126.12,47.64-189.17,71.45-4.5,1.7-9,3.34-13.57,4.84a47.11,47.11,0,0,1-5.84,1.15c-1.94-12.59-11.68-6.89-18.61-8.22-2.49-.48-6.14-2.76-6.58-4.8-3.4-15.56-18.53-12.83-28.26-18-4.3-2.31-7.76-5.28-11.65-7.89-27-18.19-54.09-36.34-82.08-55.12,11.29-6.71,23.1-9.56,35.36-12.18,27.21-5.82,54.12-13,81.19-19.44,29.6-7.05,59-14.83,88.43-22.53,18.26-4.78,36.94-8.57,55.24-13.5,4-1.08,14.27,2.5,10.24-8.82,5.92-2,11.72-4.51,17.77-5.93q73-17.12,146.07-33.8a28.43,28.43,0,0,1,13.37.39l-29.56,8.05c14.59,1.27,28.59-1.14,42.5-4.38,24.09-5.6,47.77-13.95,72.5-15.31,12.36-.69,22.69-4.54,33.85-8.64,17.76-6.51,36.44-10.53,54.71-15.67a14.19,14.19,0,0,0,6.17-3.36c-54.42,9.4-108,22.49-162.37,32.2,13.77-3.49,27.51-7.11,41.33-10.45,78.06-18.85,156.19-37.44,234.15-56.68,10.32-2.55,19.77-8.54,29.78-12.51,5.46-2.17,1.78-4.55,1-7.35-2.34-9-7.3-18.55,3.19-26.06,32.77,12.62,67,20.69,100.31,31.49,16.39,5.32,33,10,49.46,15.11,2.78.87,7.18.65,7.32,4.73.13,3.66-2.31,6.67-5.58,8.66Zm-271.82,8.6.86-.35c-.25-.18-.48-.48-.74-.51s-.57.21-.86.32Z" transform="translate(-337.02 -89.65)"/><path class="cls-2" d="M402.16,461.81c2.7-4.46,1.83-9.93,9.85-1.43,9,9.51,8,18.07,8,28.15.09,18.49,1.4,36.89,5.66,55.4-7.28,0-9.84-7.8-16.22-6.3,2.69-9-1.76-16.67-4-25A130.47,130.47,0,0,1,402.16,461.81Z" transform="translate(-337.02 -89.65)"/><path class="cls-1" d="M743.23,923.48c.79-3.92-3.27-4.87-4.59-7.49l.19-.17c8.18-.05,15.87-1.21,19.82,9.76,2.58,7.14,11.35,9.48,19.1,10.65,5.11.77,8.65,3.07,9.11,8.68a22,22,0,0,1-17.64-5.36C761.3,932.85,750.26,931.42,743.23,923.48Z" transform="translate(-337.02 -89.65)"/><path class="cls-3" d="M641.69,707.14c-2.83.78-2.37,5.87-2,10.87.22,2.67-1.06,5.83,1.77,7.78s2.27,3.84.29,5.79c-2.71,2.65-4.83,1.34-7-1-24.68-26.39-52.63-49.82-73.67-79.42-4.61-6.49-8.1-15.78-4.38-24.93,1.47-3.61-1.45-5-3.09-7-2.47-3-4.37-6.69-1.24-9.58,3.77-3.47,6.58.6,8.84,3.09,19.55,21.56,41.23,41,62.72,60.45C634.09,682.36,642.4,691.44,641.69,707.14Z" transform="translate(-337.02 -89.65)"/><path class="cls-2" d="M1385.53,531.77c-6.67,10.42-16.47,10.35-24.57,13.36-2.49.93-7-.55-7.63,2.12-2.95,13.17-16.28,10.08-21.29,8.94-19.42-4.4-36,5.54-54,7.28-10.25,1-20.71,10.16-29-4.83-2.75-5-10.23,3.67-17.44-1.65C1282.88,545.23,1331.62,529,1385.53,531.77Z" transform="translate(-337.02 -89.65)"/><path class="cls-3" d="M580.13,497.42c5.24,10.21,10.16,21.13,16.3,31.31,4.21,7,4.06,17.72,15.49,19.46,1.65.25,3.25,4.45,3.9,7.06,3.49,14,2.07,28.06,1.59,42.3-4.46-.52-4.91-3.09-5.93-5.15-11.88-24-23.7-48-35.66-71.88C571.51,511.9,565.11,503.18,580.13,497.42Z" transform="translate(-337.02 -89.65)"/><path class="cls-2" d="M1370.43,548.34c-4.43,3.36-7.49,5.55-11.72,2.81C1361.35,547.19,1365.09,548.54,1370.43,548.34Z" transform="translate(-337.02 -89.65)"/><path class="cls-2" d="M688.2,664h7C693.19,666.46,690.81,665.58,688.2,664Z" transform="translate(-337.02 -89.65)"/><path class="cls-2" d="M1258.3,541.61c.49.46,1.31.88,1.35,1.36a1.46,1.46,0,0,1-2.08,1.6,2,2,0,0,1-.8-1.76C1256.86,542.34,1257.74,542,1258.3,541.61Z" transform="translate(-337.02 -89.65)"/><path class="cls-2" d="M1400.32,374.72l.61.55-.71-.46Z" transform="translate(-337.02 -89.65)"/><path class="cls-1" d="M873.7,947c12.33,4.9,24.75,7.86,34.93,14.34,16.17,10.29,30.23,10.56,46.89.67q85.53-50.76,172.2-99.63c30.34-17,60.38-34.59,90.64-51.77,2.33-1.32,4.8-5,8.26.92,3.31,5.65-.6,6.71-2.93,8.14-14.66,9-29.51,17.7-44.41,26.3q-72.18,41.67-144.45,83.19c-30.56,17.61-61.17,35.12-91.57,53-5.55,3.27-9.51,3-15.27.05-14.24-7.27-29-13.59-43.79-19.67C877.44,959.78,873.1,956.09,873.7,947Z" transform="translate(-337.02 -89.65)"/><path class="cls-1" d="M350,709.24c10.15,8.28,23.25,8.68,34.58,13.91,60.74,28,121.68,55.63,183.22,81.81,13.51,5.75,24,15.63,37.38,21,1.48.61,5.23,2.41,3.56,5-1.79,2.79-4.35,5-8.94,3.1-13.28-5.49-27.39-9.2-40.21-15.55-43.39-21.47-88.06-40.12-131.88-60.61-13.76-6.43-27.44-13.05-41.33-19.19-8.66-3.84-17.14-9-27.49-4.9-3.39,1.33-7.17-1.59-6.76-4.77C353,722.23,348,716.17,350,709.24Z" transform="translate(-337.02 -89.65)"/><path class="cls-1" d="M676.18,872.56c7.68-1.07,10.9,9.63,19.09,7.23l.29.31,2,2,.29.35c.57,9.12,11.8,7.2,14.55,14l-.2.24c-14.77-3.93-25.12-14.53-36.22-24Z" transform="translate(-337.02 -89.65)"/><path class="cls-1" d="M647.26,853.35a104.65,104.65,0,0,1,28.92,19.21l-.19.2c-10.75-4.73-20.68-10.68-28.91-19.2Z" transform="translate(-337.02 -89.65)"/><path class="cls-1" d="M738.64,916l-14.42-9.65.18-.14c6.83.19,11.58,3.48,14.43,9.62Z" transform="translate(-337.02 -89.65)"/><path class="cls-1" d="M647.08,853.56c-4.66-.89-9.09-2.15-12.7-8.68,6.15,2.25,9.91,4.68,12.88,8.47Z" transform="translate(-337.02 -89.65)"/><path class="cls-1" d="M724.22,906.34c-4.52-2.54-9.78-4.17-12-9.59l.2-.24c4.86,2.17,10.46,3.41,12,9.69Z" transform="translate(-337.02 -89.65)"/><path class="cls-1" d="M409.28,677.23c-2.06,1.19-3,2.1-4,2.2-.83.09-1.75-.79-2.64-1.24.65-.77,1.17-1.94,2-2.19S406.5,676.44,409.28,677.23Z" transform="translate(-337.02 -89.65)"/><path class="cls-1" d="M417.63,686.66c-.27.67-.55,1.34-.83,2-.66-.3-1.7-.46-1.88-.93s.46-1.31.73-2Z" transform="translate(-337.02 -89.65)"/><path class="cls-1" d="M697.83,879.78c1.4,0,3.28-.52,3.13,1.8,0,.36-2,.59-3.1.88l-.29-.35a7.37,7.37,0,0,1,0-2Z" transform="translate(-337.02 -89.65)"/><path class="cls-1" d="M695.27,879.79c.85-2,1.71-2.18,2.56,0l-.29.34a7.72,7.72,0,0,1-2,0Z" transform="translate(-337.02 -89.65)"/><path class="cls-3" d="M872.45,542.52c-33-10.15-63.1-23.89-94.12-35-43.24-15.54-84.9-35-127.92-50.89-29.49-10.93-59.49-20.56-88-33.9-16.1-7.53-33.06-13.84-48.06-22.88-11.75-7.08-22.28-15.43-36-18.95-6.88-1.76-2.4-9.6-4.95-14.55-6.26-12.13-1.3-29.78,8.58-37.89a7.48,7.48,0,0,1,6.68-1.67c8.59,2,17.13,4.69,25.18-1.63a2.63,2.63,0,0,1,2.29.13c25.05,14.16,55,14.81,80.05,28.89,2,1.14,4.3,4.27,6.18,2.7,9-7.52,18-1.48,24.64,1.87,33.65,17,70.52,24.54,105.9,35.91,25.2,8.09,48.78,20.42,74.64,26.48,17.33,4.05,34.4,9.24,51.63,13.78,5.36,1.41,7.57,4.57,5.62,9.72-6.5,17.13-3,34.64-2.27,52C863.16,512,866.79,526.89,872.45,542.52Z" transform="translate(-337.02 -89.65)"/><path class="cls-1" d="M1287.14,619.37l-.74-.54c.29-.11.59-.35.86-.32s.49.33.74.51Z" transform="translate(-337.02 -89.65)"/><path class="cls-2" d="M695.56,880.1a7.72,7.72,0,0,0,2,0,7.37,7.37,0,0,0,0,2Z" transform="translate(-337.02 -89.65)"/></svg>